<svg xmlns="http://www.w3.org/2000/svg" xmlns:xlink="http://www.w3.org/1999/xlink" width="558" zoomAndPan="magnify" viewBox="0 0 418.5 45" height="60" preserveAspectRatio="xMidYMid meet" xmlns:v="https://vecta.io/nano"><defs><clipPath id="A"><path d="M150 .027h48v44.945h-48zm0 0" clip-rule="nonzero"/></clipPath><path id="B" d="M211.179 18.324h8.141l-4.016-7.562zm-8.312 7.406l10.516-18.562h4.156l10.641 18.563h-4.844l-2.234-4.062h-11.766l-2.156 4.063zm0 0"/><path id="C" d="M188.242 35.773l2.734-4.609h1.078l2.766 4.609h-1.25l-.578-1.016h-3.047l-.578 1.016zm2.172-1.844h2.109l-1.062-1.922zm0 0"/><path id="D" d="M199.737 32.007h-3.031v2.891h3.031v-.984l1.125.234v.531c0 .418-.086.703-.25.859s-.484.234-.953.234h-2.875c-.461 0-.773-.07-.937-.219-.168-.156-.25-.445-.25-.875v-2.422c0-.414.078-.703.234-.859.164-.156.484-.234.953-.234h2.875c.477 0 .797.078.953.234.164.156.25.445.25.859v.438l-1.125.172zm0 0"/><path id="E" d="M208.923 35.773v-4.609h4.938v.813h-3.812v1.016h2.219v.781h-2.219v1.141h3.875v.859zm0 0"/><path id="F" d="M218.94 31.961h-2.578v1.281h2.578c.188 0 .316-.023.391-.078.07-.062.109-.16.109-.297v-.531c0-.133-.039-.227-.109-.281-.074-.062-.203-.094-.391-.094zm-3.672 3.813v-4.609h4.141c.383 0 .66.074.828.219.164.137.25.359.25.672v1.094c0 .313-.086.539-.25.672s-.445.203-.828.203h-.625l2.188 1.75h-1.609l-1.937-1.75h-1.062v1.75zm0 0"/><path id="G" d="M226.321 31.992h-3.172v.969h3c.469 0 .785.078.953.234.164.148.25.434.25.859v.625c0 .43-.086.719-.25.875-.168.148-.484.219-.953.219h-2.984c-.48 0-.805-.07-.969-.219-.168-.156-.25-.445-.25-.875v-.125l1-.187v.547h3.391v-1.062h-2.984c-.48 0-.805-.07-.969-.219-.168-.156-.25-.441-.25-.859v-.516c0-.414.082-.703.25-.859s.488-.234.969-.234h2.734c.457 0 .77.078.938.234.176.148.266.402.266.766v.109l-.969.219zm0 0"/></defs><g fill="#fff"><path d="M31.997 40.285c-3.781 0-6.34-.645-7.672-1.937-1.324-1.289-1.984-3.719-1.984-7.281v-8.062l9.141-1.734v11.688h17.797V1.332h9.063v29.734c0 3.563-.672 5.992-2.016 7.281-1.336 1.293-3.883 1.938-7.641 1.938zm33.037 0V1.332h7.328l18.359 23.547 17.938-23.547h7.266v38.953h-8.406V16.222c0-.469.031-1.055.094-1.766l.25-2.406-1.297 2.5-1 1.594L90.94 35.598h-1.812L74.471 16.082l-1.391-2.078c-.375-.656-.687-1.289-.937-1.906l.156 2.219.063 1.906v24.063zm91.082-31.984h-24.437v24.656h24.438v-8.375l9.063 1.891v4.594c0 3.563-.672 5.992-2.016 7.281-1.336 1.293-3.883 1.938-7.641 1.938h-23.25c-3.781 0-6.34-.645-7.672-1.937-1.324-1.289-1.984-3.719-1.984-7.281V10.551c0-3.539.66-5.961 1.984-7.266 1.332-1.301 3.891-1.953 7.672-1.953h23.25c3.758 0 6.305.652 7.641 1.953 1.344 1.305 2.016 3.727 2.016 7.266v3.688l-9.062 1.438zm42.576 2.179h-11.641v11.75h11.641v-3.984l4.328.891v2.203c0 1.699-.324 2.855-.969 3.469-.637.617-1.844.922-3.625.922h-11.094c-1.805 0-3.023-.305-3.656-.922-.625-.613-.937-1.77-.937-3.469v-9.781c0-1.687.313-2.836.938-3.453.633-.625 1.852-.937 3.656-.937h11.094c1.781 0 2.988.313 3.625.938.645.617.969 1.766.969 3.453v1.75l-4.328.688zm0 0"/><use xlink:href="#B"/><path d="M242.61 10.386h-9.703v5.156h9.703c.75 0 1.258-.109 1.531-.328.281-.219.422-.598.422-1.141v-2.234c0-.539-.141-.914-.422-1.125-.273-.219-.781-.328-1.531-.328zM228.641 25.73V7.168h15.891c1.469 0 2.531.289 3.188.859.664.563 1 1.477 1 2.734v4.359c0 1.25-.336 2.168-1 2.75-.656.574-1.719.859-3.187.859h-2.437l8.578 7h-6.203l-7.484-7h-4.078v7zm40.772-15.25h-13.5v11.75h13.5v-4.125h-7.062v-3.156h11.25v6.391c0 1.699-.32 2.855-.953 3.469-.625.617-1.84.922-3.641.922h-12.812c-1.805 0-3.023-.305-3.656-.922-.625-.613-.937-1.77-.937-3.469v-9.781c0-1.687.313-2.836.938-3.453.633-.625 1.852-.937 3.656-.937h12.813c1.781 0 2.988.309 3.625.922.645.605.969 1.703.969 3.297v.422l-4.187.75zm7.436 1.078c0-1.687.313-2.836.938-3.453.633-.625 1.852-.937 3.656-.937h13.672c1.801 0 3.016.313 3.641.938.633.617.953 1.766.953 3.453v9.781c0 1.699-.32 2.855-.953 3.469-.625.617-1.84.922-3.641.922h-13.672c-1.805 0-3.023-.305-3.656-.922-.625-.613-.937-1.77-.937-3.469zm4.313 10.672h14.25V10.48h-14.25zm30.56 3.5V7.168h4.328V25.73zm8.269 0V7.168h2.953l13.063 10.938 1.172 1.031a12.23 12.23 0 0 1 .938.984l-.141-2.203-.031-1v-9.75h3.875V25.73h-2.937l-13.641-11.469-.859-.781-.687-.734.141 1.625.047 1.328V25.73zm30.118-3.5h5.578c2.977 0 5.086-.457 6.328-1.375 1.238-.926 1.859-2.457 1.859-4.594 0-1.895-.516-3.332-1.547-4.312s-2.555-1.469-4.562-1.469h-7.656zm-4.328 3.5V7.168h11.953c3.406 0 6.023.797 7.859 2.391s2.75 3.855 2.75 6.781c0 1.73-.359 3.289-1.078 4.672-.711 1.387-1.715 2.48-3.016 3.281-.812.5-1.82.867-3.016 1.094s-2.734.344-4.609.344zm24.967 0V7.168h4.328V25.73zm0 0"/><use xlink:href="#B" x="172.636"/><path d="M185.752 31.132h-2.937v1.484h2.938c.227 0 .383-.031.469-.094.082-.07.125-.191.125-.359v-.594c0-.164-.043-.281-.125-.344s-.242-.094-.469-.094zm-4.219 4.641v-5.625h4.813c.438 0 .754.09.953.266.207.168.313.445.313.828v1.25c0 .387-.105.668-.312.844-.199.168-.516.25-.953.25h-3.531v2.188zm0 0"/><use xlink:href="#C"/><use xlink:href="#D"/><path d="M202.444 35.773v-4.609h1.125v1.859l2.688-1.859h1.625l-3.187 2.141 3.547 2.469h-1.781l-2.891-2.078v2.078zm0 0"/><use xlink:href="#E"/><use xlink:href="#F"/><use xlink:href="#G"/><use xlink:href="#C" x="44.015"/><path d="M239.72 35.773v-4.609h.766l3.906 3.063v-3.062h1.016v4.609h-.781l-3.891-3.109v3.109zm8.603-.859h1.453c.789 0 1.344-.113 1.656-.344s.469-.617.469-1.172c0-.469-.133-.816-.391-1.047-.262-.238-.664-.359-1.203-.359h-1.984zm-1.125.859v-4.609h3.094c.895 0 1.578.199 2.047.594.477.398.719.965.719 1.703 0 .773-.258 1.352-.766 1.734-.5.387-1.262.578-2.281.578zm16.349-4.609h-3.531v3.547h3.531v-1.203l1.297.266v.672c0 .512-.102.859-.297 1.047-.187.188-.555.281-1.094.281h-3.344c-.555 0-.93-.094-1.125-.281-.187-.187-.281-.535-.281-1.047v-2.969c0-.508.094-.859.281-1.047.195-.187.57-.281 1.125-.281h3.344c.539 0 .906.094 1.094.281.195.188.297.539.297 1.047v.531l-1.297.219zm0 0"/><use xlink:href="#C" x="77.922"/><use xlink:href="#F" x="58.359"/><path d="M287.388 31.164v4.609h-1.297v-4.609h-2.578v-1.016h6.469v1.016zm0 0"/><use xlink:href="#F" x="75.636"/><use xlink:href="#C" x="108.762"/><path d="M304.467 35.773v-4.609h.766l3.906 3.063v-3.062h1.016v4.609h-.781l-3.891-3.109v3.109zm0 0"/><use xlink:href="#G" x="89.873"/><path d="M318.891 35.773v-4.609h4.141c.383 0 .66.074.828.219.164.137.25.359.25.672v1.031c0 .313-.086.543-.25.688-.168.137-.445.203-.828.203h-3.047v1.797zm3.672-3.812h-2.578v1.219h2.578c.188 0 .316-.023.391-.078.07-.062.109-.16.109-.297v-.469c0-.133-.039-.227-.109-.281-.074-.062-.203-.094-.391-.094zm3.891 2.937h3.719v-2.891h-3.719zm-1.109-2.641c0-.414.078-.703.234-.859.164-.156.484-.234.953-.234h3.563c.477 0 .797.078.953.234.164.156.25.445.25.859v2.422c0 .43-.086.719-.25.875-.168.148-.484.219-.953.219h-3.562c-.469 0-.789-.07-.953-.219-.156-.156-.234-.445-.234-.875zm0 0"/><use xlink:href="#F" x="117.696"/><path d="M342.501 31.992v3.781h-1.125v-3.781h-2.219v-.828h5.578v.828zm12.639-.86h-3.687v1.203h3.5c.551 0 .922.102 1.109.297.195.188.297.539.297 1.047v.766c0 .512-.102.859-.297 1.047-.187.188-.559.281-1.109.281h-3.469c-.555 0-.93-.094-1.125-.281-.187-.187-.281-.535-.281-1.047v-.156l1.156-.234v.656h3.969V33.43h-3.5c-.543 0-.914-.094-1.109-.281-.187-.187-.281-.535-.281-1.047v-.625c0-.508.094-.859.281-1.047.195-.187.566-.281 1.109-.281h3.188c.531 0 .895.094 1.094.281.195.18.297.496.297.953v.125l-1.141.266zm0 0"/><use xlink:href="#E" x="149.471"/><use xlink:href="#F" x="149.471"/><path d="M373.699 35.773l-2.797-4.609h1.281l1.938 3.344 1.844-3.344h1.172l-2.672 4.609zm4.449 0v-4.609h1.109v4.609zm0 0"/><use xlink:href="#D" x="185.339"/><use xlink:href="#E" x="178.859"/><use xlink:href="#G" x="172.057"/></g><g clip-path="url(#A)"><path stroke-linecap="round" fill="none" d="M174.117 7.316l-.195 29.145" stroke="#fff" stroke-width="4.164"/></g></svg>